AmstelvarAlpha-XOPQ120_wght75.ufo
<glyph name="exclam" format="1">
  <advance width="577"/>
  <unicode hex="0021"/>
  <outline>
    <contour>
      <point x="168" y="97" type="qcurve" smooth="yes"/>
      <point x="168" y="146"/>
      <point x="235" y="217"/>
      <point x="288" y="217" type="qcurve" smooth="yes"/>
      <point x="342" y="217"/>
      <point x="409" y="146"/>
      <point x="409" y="97" type="qcurve" smooth="yes"/>
      <point x="409" y="49"/>
      <point x="342" y="-22"/>
      <point x="288" y="-22" type="qcurve" smooth="yes"/>
      <point x="235" y="-22"/>
      <point x="168" y="49"/>
    </contour>
    <contour>
      <point x="269" y="1520" type="line"/>
      <point x="308" y="1520" type="line"/>
      <point x="304" y="1162" type="line"/>
      <point x="288" y="857" type="line"/>
      <point x="289" y="378" type="line"/>
      <point x="286" y="378" type="line"/>
      <point x="286" y="857" type="line"/>
      <point x="273" y="1162" type="line"/>
    </contour>
  </outline>
</glyph>
<glyph name="quotedbl" format="1">
  <advance width="634"/>
  <unicode hex="0022"/>
  <outline>
    <contour>
      <point x="221" y="964" type="line"/>
      <point x="198" y="1434" type="line" smooth="yes"/>
      <point x="195" y="1490"/>
      <point x="200" y="1558"/>
      <point x="222" y="1558" type="qcurve" smooth="yes"/>
      <point x="244" y="1558"/>
      <point x="248" y="1490"/>
      <point x="246" y="1434" type="qcurve" smooth="yes"/>
      <point x="224" y="964" type="line"/>
    </contour>
    <contour>
      <point x="411" y="964" type="line"/>
      <point x="388" y="1434" type="line" smooth="yes"/>
      <point x="386" y="1490"/>
      <point x="390" y="1558"/>
      <point x="412" y="1558" type="qcurve" smooth="yes"/>
      <point x="434" y="1558"/>
      <point x="439" y="1490"/>
      <point x="437" y="1434" type="qcurve" smooth="yes"/>
      <point x="414" y="964" type="line"/>
    </contour>
  </outline>
</glyph>
<glyph name="dollar" format="1">
  <advance width="1056"/>
  <unicode hex="0024"/>
  <outline>
    <contour>
      <point x="65" y="297" type="qcurve"/>
      <point x="124" y="333" type="line"/>
      <point x="190" y="214"/>
      <point x="410" y="76"/>
      <point x="550" y="76" type="qcurve" smooth="yes"/>
      <point x="734" y="76"/>
      <point x="979" y="231"/>
      <point x="979" y="371" type="qcurve" smooth="yes"/>
      <point x="979" y="513"/>
      <point x="766" y="695"/>
      <point x="533" y="791" type="qcurve" smooth="yes"/>
      <point x="288" y="892"/>
      <point x="131" y="1042"/>
      <point x="131" y="1152" type="qcurve" smooth="yes"/>
      <point x="131" y="1308"/>
      <point x="342" y="1501"/>
      <point x="538" y="1501" type="qcurve" smooth="yes"/>
      <point x="665" y="1501"/>
      <point x="859" y="1420"/>
      <point x="924" y="1346" type="qcurve"/>
      <point x="884" y="1292" type="line"/>
      <point x="829" y="1358"/>
      <point x="656" y="1436"/>
      <point x="538" y="1436" type="qcurve" smooth="yes"/>
      <point x="364" y="1436"/>
      <point x="141" y="1292"/>
      <point x="141" y="1164" type="qcurve" smooth="yes"/>
      <point x="141" y="1047"/>
      <point x="323" y="905"/>
      <point x="550" y="810" type="qcurve" smooth="yes"/>
      <point x="801" y="707"/>
      <point x="993" y="518"/>
      <point x="993" y="378" type="qcurve" smooth="yes"/>
      <point x="993" y="206"/>
      <point x="754" y="16"/>
      <point x="552" y="16" type="qcurve" smooth="yes"/>
      <point x="390" y="16"/>
      <point x="144" y="154"/>
    </contour>
    <contour>
      <point x="506" y="-166" type="line"/>
      <point x="506" y="42" type="line"/>
      <point x="515" y="42" type="line"/>
      <point x="515" y="762" type="line"/>
      <point x="578" y="723" type="line"/>
      <point x="578" y="42" type="line"/>
      <point x="587" y="42" type="line"/>
      <point x="587" y="-140" type="line"/>
    </contour>
    <contour>
      <point x="504" y="1581" type="line"/>
      <point x="586" y="1600" type="line"/>
      <point x="586" y="1422" type="line"/>
      <point x="577" y="1422" type="line"/>
      <point x="577" y="829" type="line"/>
      <point x="514" y="868" type="line"/>
      <point x="514" y="1422" type="line"/>
      <point x="504" y="1422" type="line"/>
    </contour>
  </outline>
</glyph>
<glyph name="percent" format="1">
  <advance width="1952"/>
  <unicode hex="0025"/>
  <outline>
    <contour>
      <point x="69" y="1066" type="qcurve" smooth="yes"/>
      <point x="69" y="1269"/>
      <point x="278" y="1522"/>
      <point x="448" y="1522" type="qcurve" smooth="yes"/>
      <point x="619" y="1522"/>
      <point x="830" y="1269"/>
      <point x="830" y="1066" type="qcurve" smooth="yes"/>
      <point x="830" y="864"/>
      <point x="621" y="601"/>
      <point x="451" y="601" type="qcurve" smooth="yes"/>
      <point x="280" y="601"/>
      <point x="69" y="864"/>
    </contour>
    <contour>
      <point x="87" y="1068" type="qcurve" smooth="yes"/>
      <point x="89" y="869"/>
      <point x="302" y="659"/>
      <point x="448" y="659" type="qcurve" smooth="yes"/>
      <point x="593" y="659"/>
      <point x="811" y="867"/>
      <point x="811" y="1067" type="qcurve" smooth="yes"/>
      <point x="811" y="1266"/>
      <point x="599" y="1462"/>
      <point x="448" y="1462" type="qcurve" smooth="yes"/>
      <point x="298" y="1462"/>
      <point x="86" y="1267"/>
    </contour>
    <contour>
      <point x="444" y="-23" type="line"/>
      <point x="1498" y="1511" type="line"/>
      <point x="1493" y="1514" type="line"/>
      <point x="439" y="-20" type="line"/>
    </contour>
    <contour>
      <point x="1122" y="436" type="qcurve" smooth="yes"/>
      <point x="1122" y="638"/>
      <point x="1331" y="891"/>
      <point x="1501" y="891" type="qcurve" smooth="yes"/>
      <point x="1672" y="891"/>
      <point x="1883" y="638"/>
      <point x="1883" y="436" type="qcurve" smooth="yes"/>
      <point x="1883" y="234"/>
      <point x="1675" y="-30"/>
      <point x="1504" y="-30" type="qcurve" smooth="yes"/>
      <point x="1333" y="-30"/>
      <point x="1122" y="234"/>
    </contour>
    <contour>
      <point x="1140" y="437" type="qcurve" smooth="yes"/>
      <point x="1142" y="239"/>
      <point x="1356" y="28"/>
      <point x="1501" y="28" type="qcurve" smooth="yes"/>
      <point x="1647" y="28"/>
      <point x="1864" y="237"/>
      <point x="1864" y="437" type="qcurve" smooth="yes"/>
      <point x="1864" y="636"/>
      <point x="1652" y="831"/>
      <point x="1501" y="831" type="qcurve" smooth="yes"/>
      <point x="1351" y="831"/>
      <point x="1140" y="636"/>
    </contour>
  </outline>
</glyph>
<glyph name="asterisk" format="1">
  <advance width="830"/>
  <unicode hex="002A"/>
  <outline>
    <contour>
      <point x="415" y="703" type="qcurve" smooth="yes"/>
      <point x="398" y="703"/>
      <point x="395" y="750"/>
      <point x="398" y="792" type="qcurve" smooth="yes"/>
      <point x="416" y="1123" type="line"/>
      <point x="416" y="1123" type="line"/>
      <point x="139" y="942" type="line" smooth="yes"/>
      <point x="104" y="918"/>
      <point x="62" y="897"/>
      <point x="54" y="912" type="qcurve"/>
      <point x="45" y="927"/>
      <point x="83" y="953"/>
      <point x="121" y="971" type="qcurve" smooth="yes"/>
      <point x="418" y="1120" type="line"/>
      <point x="418" y="1122" type="line"/>
      <point x="121" y="1270" type="line" smooth="yes"/>
      <point x="83" y="1288"/>
      <point x="45" y="1315"/>
      <point x="54" y="1330" type="qcurve" smooth="yes"/>
      <point x="62" y="1344"/>
      <point x="104" y="1324"/>
      <point x="139" y="1300" type="qcurve" smooth="yes"/>
      <point x="416" y="1118" type="line"/>
      <point x="416" y="1119" type="line"/>
      <point x="398" y="1450" type="line" smooth="yes"/>
      <point x="395" y="1490"/>
      <point x="398" y="1539"/>
      <point x="415" y="1539" type="qcurve" smooth="yes"/>
      <point x="433" y="1539"/>
      <point x="435" y="1491"/>
      <point x="433" y="1450" type="qcurve" smooth="yes"/>
      <point x="414" y="1119" type="line"/>
      <point x="414" y="1118" type="line"/>
      <point x="691" y="1300" type="line" smooth="yes"/>
      <point x="727" y="1324"/>
      <point x="769" y="1344"/>
      <point x="776" y="1330" type="qcurve"/>
      <point x="785" y="1315"/>
      <point x="747" y="1288"/>
      <point x="709" y="1270" type="qcurve" smooth="yes"/>
      <point x="412" y="1121" type="line"/>
      <point x="412" y="1119" type="line"/>
      <point x="709" y="971" type="line" smooth="yes"/>
      <point x="747" y="953"/>
      <point x="785" y="927"/>
      <point x="776" y="911" type="qcurve" smooth="yes"/>
      <point x="769" y="897"/>
      <point x="727" y="918"/>
      <point x="691" y="942" type="qcurve" smooth="yes"/>
      <point x="414" y="1123" type="line"/>
      <point x="414" y="1123" type="line"/>
      <point x="433" y="792" type="line" smooth="yes"/>
      <point x="435" y="750"/>
      <point x="431" y="703"/>
    </contour>
  </outline>
</glyph>
<glyph name="plus" format="1">
  <advance width="986"/>
  <unicode hex="002B"/>
  <outline>
    <contour>
      <point x="77" y="593" type="line"/>
      <point x="77" y="671" type="line"/>
      <point x="909" y="671" type="line"/>
      <point x="909" y="593" type="line"/>
    </contour>
    <contour>
      <point x="495" y="216" type="line"/>
      <point x="495" y="1048" type="line"/>
      <point x="491" y="1048" type="line"/>
      <point x="491" y="216" type="line"/>
    </contour>
  </outline>
</glyph>
<glyph name="zero" format="1">
  <advance width="1122"/>
  <unicode hex="0030"/>
  <outline>
    <contour>
      <point x="69" y="750" type="qcurve" smooth="yes"/>
      <point x="69" y="1100"/>
      <point x="346" y="1520"/>
      <point x="562" y="1520" type="qcurve" smooth="yes"/>
      <point x="780" y="1520"/>
      <point x="1053" y="1099"/>
      <point x="1053" y="751" type="qcurve" smooth="yes"/>
      <point x="1053" y="413"/>
      <point x="783" y="-29"/>
      <point x="564" y="-29" type="qcurve" smooth="yes"/>
      <point x="345" y="-29"/>
      <point x="69" y="396"/>
    </contour>
    <contour>
      <point x="89" y="759" type="qcurve" smooth="yes"/>
      <point x="89" y="394"/>
      <point x="373" y="27"/>
      <point x="561" y="27" type="qcurve" smooth="yes"/>
      <point x="748" y="27"/>
      <point x="1031" y="391"/>
      <point x="1033" y="756" type="qcurve" smooth="yes"/>
      <point x="1035" y="1119"/>
      <point x="752" y="1456"/>
      <point x="562" y="1456" type="qcurve" smooth="yes"/>
      <point x="372" y="1456"/>
      <point x="88" y="1122"/>
    </contour>
  </outline>
</glyph>
<glyph name="two" format="1">
  <advance width="916"/>
  <unicode hex="0032"/>
  <outline>
    <contour>
      <point x="11" y="0" type="line"/>
      <point x="11" y="91" type="line"/>
      <point x="26" y="232"/>
      <point x="194" y="493"/>
      <point x="365" y="625" type="qcurve" smooth="yes"/>
      <point x="520" y="746"/>
      <point x="829" y="975"/>
      <point x="829" y="1142" type="qcurve" smooth="yes"/>
      <point x="829" y="1304"/>
      <point x="596" y="1449"/>
      <point x="445" y="1449" type="qcurve" smooth="yes"/>
      <point x="308" y="1449"/>
      <point x="111" y="1346"/>
      <point x="40" y="1262" type="qcurve"/>
      <point x="40" y="1333" type="line"/>
      <point x="96" y="1405"/>
      <point x="292" y="1520"/>
      <point x="452" y="1520" type="qcurve" smooth="yes"/>
      <point x="623" y="1520"/>
      <point x="850" y="1316"/>
      <point x="850" y="1146" type="qcurve" smooth="yes"/>
      <point x="850" y="943"/>
      <point x="531" y="660"/>
      <point x="405" y="571" type="qcurve" smooth="yes"/>
      <point x="263" y="470"/>
      <point x="81" y="210"/>
      <point x="66" y="25" type="qcurve"/>
      <point x="70" y="20" type="line"/>
      <point x="906" y="20" type="line"/>
      <point x="906" y="0" type="line"/>
    </contour>
  </outline>
</glyph>
<glyph name="four" format="1">
  <advance width="1114"/>
  <unicode hex="0034"/>
  <outline>
    <contour>
      <point x="12" y="518" type="line"/>
      <point x="11" y="513" type="line"/>
      <point x="683" y="1498" type="line"/>
      <point x="718" y="1499" type="line"/>
      <point x="735" y="1478" type="line"/>
      <point x="734" y="518" type="line"/>
      <point x="1113" y="518" type="line"/>
      <point x="1113" y="521" type="line"/>
      <point x="734" y="519" type="line"/>
      <point x="734" y="74" type="line"/>
      <point x="1027" y="47" type="line"/>
      <point x="1027" y="0" type="line"/>
      <point x="413" y="0" type="line"/>
      <point x="413" y="47" type="line"/>
      <point x="715" y="74" type="line"/>
      <point x="715" y="522" type="line"/>
    </contour>
    <contour>
      <point x="94" y="518" type="line"/>
      <point x="717" y="518" type="line"/>
      <point x="715" y="1439" type="line"/>
      <point x="90" y="524" type="line"/>
    </contour>
  </outline>
</glyph>
<glyph name="five" format="1">
  <advance width="928"/>
  <unicode hex="0035"/>
  <outline>
    <contour>
      <point x="-13" y="130" type="qcurve"/>
      <point x="-13" y="193" type="line"/>
      <point x="70" y="118"/>
      <point x="286" y="44"/>
      <point x="423" y="44" type="qcurve" smooth="yes"/>
      <point x="591" y="44"/>
      <point x="875" y="251"/>
      <point x="875" y="455" type="qcurve" smooth="yes"/>
      <point x="875" y="664"/>
      <point x="543" y="829"/>
      <point x="327" y="829" type="qcurve" smooth="yes"/>
      <point x="134" y="829" type="line"/>
      <point x="165" y="891" type="line"/>
      <point x="361" y="928" type="line"/>
      <point x="600" y="930"/>
      <point x="894" y="694"/>
      <point x="894" y="464" type="qcurve" smooth="yes"/>
      <point x="894" y="248"/>
      <point x="633" y="-25"/>
      <point x="434" y="-25" type="qcurve" smooth="yes"/>
      <point x="281" y="-25"/>
      <point x="59" y="58"/>
    </contour>
    <contour>
      <point x="134" y="830" type="qcurve"/>
      <point x="200" y="1475" type="line"/>
      <point x="223" y="1500" type="line"/>
      <point x="820" y="1500" type="line"/>
      <point x="819" y="1481" type="line"/>
      <point x="271" y="1481" type="line"/>
      <point x="261" y="1470" type="line"/>
      <point x="200" y="867"/>
      <point x="174" y="836"/>
    </contour>
  </outline>
</glyph>
<glyph name="six" format="1">
  <advance width="1122"/>
  <unicode hex="0036"/>
  <outline>
    <contour>
      <point x="69" y="643" type="qcurve" smooth="yes"/>
      <point x="69" y="993"/>
      <point x="473" y="1470"/>
      <point x="848" y="1560" type="qcurve"/>
      <point x="848" y="1490" type="line"/>
      <point x="528" y="1416"/>
      <point x="89" y="989"/>
      <point x="89" y="642" type="qcurve" smooth="yes"/>
      <point x="89" y="329"/>
      <point x="407" y="29"/>
      <point x="601" y="29" type="qcurve" smooth="yes"/>
      <point x="779" y="29"/>
      <point x="1047" y="232"/>
      <point x="1047" y="455" type="qcurve" smooth="yes"/>
      <point x="1047" y="670"/>
      <point x="782" y="846"/>
      <point x="628" y="846" type="qcurve" smooth="yes"/>
      <point x="549" y="846"/>
      <point x="439" y="806"/>
      <point x="401" y="783" type="qcurve"/>
      <point x="387" y="820" type="line"/>
      <point x="422" y="856"/>
      <point x="541" y="915"/>
      <point x="629" y="915" type="qcurve" smooth="yes"/>
      <point x="812" y="915"/>
      <point x="1066" y="673"/>
      <point x="1066" y="454" type="qcurve" smooth="yes"/>
      <point x="1066" y="227"/>
      <point x="807" y="-26"/>
      <point x="600" y="-26" type="qcurve" smooth="yes"/>
      <point x="370" y="-26"/>
      <point x="69" y="333"/>
    </contour>
  </outline>
</glyph>
<glyph name="seven" format="1">
  <advance width="921"/>
  <unicode hex="0037"/>
  <outline>
    <contour>
      <point x="33" y="1111" type="line"/>
      <point x="33" y="1500" type="line"/>
      <point x="922" y="1500" type="line"/>
      <point x="922" y="1425" type="line"/>
      <point x="602" y="644" type="line"/>
      <point x="320" y="-42" type="line"/>
      <point x="270" y="-42" type="line"/>
      <point x="270" y="0" type="line"/>
      <point x="544" y="666" type="line"/>
      <point x="843" y="1418" type="line"/>
      <point x="847" y="1481" type="line"/>
      <point x="130" y="1481" type="line"/>
      <point x="92" y="1111" type="line"/>
    </contour>
  </outline>
</glyph>
<glyph name="eight" format="1">
  <advance width="1008"/>
  <unicode hex="0038"/>
  <outline>
    <contour>
      <point x="64" y="358" type="qcurve" smooth="yes"/>
      <point x="64" y="526"/>
      <point x="283" y="757"/>
      <point x="456" y="838" type="qcurve"/>
      <point x="503" y="814" type="line"/>
      <point x="323" y="722"/>
      <point x="140" y="508"/>
      <point x="140" y="363" type="qcurve" smooth="yes"/>
      <point x="140" y="218"/>
      <point x="350" y="29"/>
      <point x="513" y="29" type="qcurve" smooth="yes"/>
      <point x="664" y="29"/>
      <point x="937" y="209"/>
      <point x="937" y="366" type="qcurve" smooth="yes"/>
      <point x="937" y="526"/>
      <point x="688" y="710"/>
      <point x="512" y="797" type="qcurve" smooth="yes"/>
      <point x="326" y="888"/>
      <point x="134" y="1041"/>
      <point x="134" y="1182" type="qcurve" smooth="yes"/>
      <point x="134" y="1332"/>
      <point x="357" y="1520"/>
      <point x="498" y="1520" type="qcurve" smooth="yes"/>
      <point x="661" y="1520"/>
      <point x="854" y="1352"/>
      <point x="854" y="1217" type="qcurve" smooth="yes"/>
      <point x="854" y="1086"/>
      <point x="700" y="885"/>
      <point x="538" y="797" type="qcurve"/>
      <point x="487" y="823" type="line"/>
      <point x="649" y="914"/>
      <point x="776" y="1090"/>
      <point x="776" y="1202" type="qcurve" smooth="yes"/>
      <point x="776" y="1323"/>
      <point x="627" y="1465"/>
      <point x="475" y="1465" type="qcurve" smooth="yes"/>
      <point x="361" y="1465"/>
      <point x="147" y="1325"/>
      <point x="147" y="1195" type="qcurve" smooth="yes"/>
      <point x="147" y="1057"/>
      <point x="340" y="904"/>
      <point x="524" y="814" type="qcurve" smooth="yes"/>
      <point x="704" y="726"/>
      <point x="950" y="540"/>
      <point x="950" y="379" type="qcurve" smooth="yes"/>
      <point x="950" y="208"/>
      <point x="688" y="-25"/>
      <point x="509" y="-25" type="qcurve" smooth="yes"/>
      <point x="315" y="-25"/>
      <point x="64" y="198"/>
    </contour>
  </outline>
</glyph>
<glyph name="nine" format="1">
  <advance width="1122"/>
  <unicode hex="0039"/>
  <outline>
    <contour>
      <point x="56" y="1040" type="qcurve" smooth="yes"/>
      <point x="56" y="1266"/>
      <point x="315" y="1520"/>
      <point x="522" y="1520" type="qcurve" smooth="yes"/>
      <point x="752" y="1520"/>
      <point x="1053" y="1161"/>
      <point x="1053" y="851" type="qcurve" smooth="yes"/>
      <point x="1053" y="501"/>
      <point x="651" y="25"/>
      <point x="276" y="-65" type="qcurve"/>
      <point x="276" y="1" type="line"/>
      <point x="595" y="74"/>
      <point x="1035" y="503"/>
      <point x="1035" y="851" type="qcurve" smooth="yes"/>
      <point x="1035" y="1165"/>
      <point x="715" y="1464"/>
      <point x="521" y="1464" type="qcurve" smooth="yes"/>
      <point x="343" y="1464"/>
      <point x="77" y="1262"/>
      <point x="77" y="1039" type="qcurve" smooth="yes"/>
      <point x="77" y="823"/>
      <point x="340" y="647"/>
      <point x="494" y="647" type="qcurve" smooth="yes"/>
      <point x="573" y="647"/>
      <point x="683" y="688"/>
      <point x="721" y="711" type="qcurve"/>
      <point x="735" y="673" type="line"/>
      <point x="700" y="638"/>
      <point x="581" y="579"/>
      <point x="493" y="579" type="qcurve" smooth="yes"/>
      <point x="310" y="579"/>
      <point x="56" y="820"/>
    </contour>
  </outline>
</glyph>
<glyph name="colon" format="1">
  <advance width="636"/>
  <unicode hex="003A"/>
  <outline>
    <contour>
      <point x="223" y="77" type="qcurve" smooth="yes"/>
      <point x="223" y="115"/>
      <point x="276" y="171"/>
      <point x="318" y="171" type="qcurve" smooth="yes"/>
      <point x="360" y="171"/>
      <point x="413" y="115"/>
      <point x="413" y="77" type="qcurve" smooth="yes"/>
      <point x="413" y="38"/>
      <point x="360" y="-18"/>
      <point x="318" y="-18" type="qcurve" smooth="yes"/>
      <point x="276" y="-18"/>
      <point x="223" y="38"/>
    </contour>
    <contour>
      <point x="223" y="932" type="qcurve" smooth="yes"/>
      <point x="223" y="972"/>
      <point x="276" y="1028"/>
      <point x="318" y="1028" type="qcurve" smooth="yes"/>
      <point x="360" y="1028"/>
      <point x="413" y="972"/>
      <point x="413" y="932" type="qcurve" smooth="yes"/>
      <point x="413" y="894"/>
      <point x="360" y="838"/>
      <point x="318" y="838" type="qcurve" smooth="yes"/>
      <point x="276" y="838"/>
      <point x="223" y="894"/>
    </contour>
  </outline>
</glyph>
<glyph name="semicolon" format="1">
  <advance width="628"/>
  <unicode hex="003B"/>
  <outline>
    <contour>
      <point x="213" y="-221" type="line"/>
      <point x="266" y="-175"/>
      <point x="338" y="-65"/>
      <point x="354" y="-3" type="qcurve"/>
      <point x="290" y="-14"/>
      <point x="222" y="40"/>
      <point x="222" y="84" type="qcurve" smooth="yes"/>
      <point x="222" y="127"/>
      <point x="274" y="178"/>
      <point x="316" y="178" type="qcurve" smooth="yes"/>
      <point x="356" y="178"/>
      <point x="411" y="123"/>
      <point x="411" y="75" type="qcurve" smooth="yes"/>
      <point x="411" y="-9"/>
      <point x="289" y="-168"/>
      <point x="210" y="-219" type="qcurve"/>
    </contour>
    <contour>
      <point x="222" y="932" type="qcurve" smooth="yes"/>
      <point x="222" y="972"/>
      <point x="275" y="1028"/>
      <point x="317" y="1028" type="qcurve" smooth="yes"/>
      <point x="359" y="1028"/>
      <point x="412" y="972"/>
      <point x="412" y="932" type="qcurve" smooth="yes"/>
      <point x="412" y="894"/>
      <point x="359" y="838"/>
      <point x="317" y="838" type="qcurve" smooth="yes"/>
      <point x="275" y="838"/>
      <point x="222" y="894"/>
    </contour>
  </outline>
</glyph>
<glyph name="less" format="1">
  <advance width="675"/>
  <unicode hex="003C"/>
  <outline>
    <contour>
      <point x="106" y="634" type="qcurve"/>
      <point x="106" y="634"/>
      <point x="490" y="1015"/>
      <point x="549" y="1077" type="qcurve" smooth="yes"/>
      <point x="556" y="1084"/>
      <point x="559" y="1085"/>
      <point x="549" y="1077" type="qcurve"/>
      <point x="433" y="963"/>
      <point x="91" y="634"/>
      <point x="91" y="634" type="qcurve"/>
      <point x="91" y="634"/>
      <point x="433" y="303"/>
      <point x="550" y="188" type="qcurve"/>
      <point x="559" y="180"/>
      <point x="556" y="181"/>
      <point x="549" y="189" type="qcurve"/>
      <point x="489" y="251"/>
      <point x="106" y="634"/>
    </contour>
  </outline>
</glyph>
<glyph name="E" format="1">
  <advance width="1201"/>
  <unicode hex="0045"/>
  <outline>
    <contour>
      <point x="76" y="0" type="line"/>
      <point x="76" y="50" type="line"/>
      <point x="352" y="74" type="line"/>
      <point x="352" y="784" type="line"/>
      <point x="352" y="1421" type="line"/>
      <point x="76" y="1445" type="line"/>
      <point x="76" y="1500" type="line"/>
      <point x="1081" y="1500" type="line"/>
      <point x="1081" y="1160" type="line"/>
      <point x="1027" y="1160" type="line"/>
      <point x="982" y="1443" type="line"/>
      <point x="424" y="1443" type="line"/>
      <point x="372" y="1410" type="line"/>
      <point x="371" y="784" type="line"/>
      <point x="372" y="83" type="line"/>
      <point x="436" y="52" type="line"/>
      <point x="1044" y="52" type="line"/>
      <point x="1129" y="370" type="line"/>
      <point x="1182" y="370" type="line"/>
      <point x="1142" y="0" type="line"/>
    </contour>
    <contour>
      <point x="363" y="763" type="line"/>
      <point x="363" y="811" type="line"/>
      <point x="846" y="814" type="line"/>
      <point x="875" y="1000" type="line"/>
      <point x="928" y="1000" type="line"/>
      <point x="928" y="572" type="line"/>
      <point x="875" y="572" type="line"/>
      <point x="846" y="763" type="line"/>
    </contour>
  </outline>
</glyph>
<glyph name="G" format="1">
  <advance width="1497"/>
  <unicode hex="0047"/>
  <outline>
    <contour>
      <point x="75" y="721" type="qcurve" smooth="yes"/>
      <point x="75" y="1080"/>
      <point x="485" y="1519"/>
      <point x="797" y="1519" type="qcurve" smooth="yes"/>
      <point x="930" y="1519"/>
      <point x="1162" y="1442"/>
      <point x="1235" y="1369" type="qcurve"/>
      <point x="1184" y="1313" type="line"/>
      <point x="1115" y="1385"/>
      <point x="888" y="1452"/>
      <point x="756" y="1452" type="qcurve" smooth="yes"/>
      <point x="464" y="1452"/>
      <point x="93" y="1080"/>
      <point x="95" y="737" type="qcurve" smooth="yes"/>
      <point x="96" y="416"/>
      <point x="482" y="35"/>
      <point x="787" y="35" type="qcurve" smooth="yes"/>
      <point x="960" y="35"/>
      <point x="1230" y="140"/>
      <point x="1304" y="219" type="qcurve"/>
      <point x="1349" y="174" type="line"/>
      <point x="1279" y="94"/>
      <point x="1000" y="-29"/>
      <point x="816" y="-29" type="qcurve" smooth="yes"/>
      <point x="495" y="-29"/>
      <point x="75" y="374"/>
    </contour>
    <contour>
      <point x="1007" y="613" type="line"/>
      <point x="1007" y="663" type="line"/>
      <point x="1486" y="663" type="line"/>
      <point x="1486" y="613" type="line"/>
      <point x="1277" y="598" type="line"/>
      <point x="1277" y="143" type="line"/>
      <point x="1258" y="160" type="line"/>
      <point x="1258" y="598" type="line"/>
    </contour>
    <contour>
      <point x="1181" y="1334" type="line"/>
      <point x="1218" y="1487" type="line"/>
      <point x="1272" y="1487" type="line"/>
      <point x="1272" y="1050" type="line"/>
      <point x="1216" y="1050" type="line"/>
    </contour>
  </outline>
</glyph>
<glyph name="I" format="1">
  <advance width="742"/>
  <unicode hex="0049"/>
  <outline>
    <contour>
      <point x="76" y="0" type="line"/>
      <point x="76" y="50" type="line"/>
      <point x="362" y="74" type="line"/>
      <point x="361" y="754" type="line"/>
      <point x="362" y="1419" type="line"/>
      <point x="76" y="1443" type="line"/>
      <point x="76" y="1500" type="line"/>
      <point x="665" y="1500" type="line"/>
      <point x="665" y="1443" type="line"/>
      <point x="380" y="1419" type="line"/>
      <point x="380" y="754" type="line"/>
      <point x="380" y="74" type="line"/>
      <point x="665" y="50" type="line"/>
      <point x="665" y="0" type="line"/>
    </contour>
  </outline>
</glyph>
<glyph name="K" format="1">
  <advance width="1373"/>
  <unicode hex="004B"/>
  <outline>
    <contour>
      <point x="76" y="0" type="line"/>
      <point x="76" y="50" type="line"/>
      <point x="352" y="74" type="line"/>
      <point x="352" y="754" type="line"/>
      <point x="352" y="1419" type="line"/>
      <point x="76" y="1443" type="line"/>
      <point x="76" y="1500" type="line"/>
      <point x="646" y="1500" type="line"/>
      <point x="646" y="1443" type="line"/>
      <point x="371" y="1419" type="line"/>
      <point x="371" y="754" type="line"/>
      <point x="371" y="74" type="line"/>
      <point x="646" y="50" type="line"/>
      <point x="646" y="0" type="line"/>
    </contour>
    <contour>
      <point x="364" y="519" type="line"/>
      <point x="362" y="607" type="line"/>
      <point x="1087" y="1422" type="line"/>
      <point x="892" y="1443" type="line"/>
      <point x="892" y="1500" type="line"/>
      <point x="1362" y="1500" type="line"/>
      <point x="1362" y="1443" type="line"/>
      <point x="1166" y="1422" type="line"/>
    </contour>
    <contour>
      <point x="636" y="863" type="line"/>
      <point x="648" y="885" type="line"/>
      <point x="1211" y="74" type="line"/>
      <point x="1454" y="50" type="line"/>
      <point x="1454" y="0" type="line"/>
      <point x="942" y="0" type="line"/>
      <point x="942" y="50" type="line"/>
      <point x="1188" y="74" type="line"/>
    </contour>
  </outline>
</glyph>
<glyph name="L" format="1">
  <advance width="1205"/>
  <unicode hex="004C"/>
  <outline>
    <contour>
      <point x="76" y="0" type="line"/>
      <point x="76" y="50" type="line"/>
      <point x="352" y="76" type="line"/>
      <point x="352" y="754" type="line"/>
      <point x="352" y="1419" type="line"/>
      <point x="76" y="1443" type="line"/>
      <point x="76" y="1500" type="line"/>
      <point x="679" y="1500" type="line"/>
      <point x="679" y="1443" type="line"/>
      <point x="371" y="1419" type="line"/>
      <point x="371" y="754" type="line"/>
      <point x="371" y="77" type="line"/>
      <point x="430" y="52" type="line"/>
      <point x="1049" y="52" type="line"/>
      <point x="1146" y="409" type="line"/>
      <point x="1205" y="409" type="line"/>
      <point x="1155" y="0" type="line"/>
    </contour>
  </outline>
</glyph>
<glyph name="S" format="1">
  <advance width="1062"/>
  <unicode hex="0053"/>
  <outline>
    <contour>
      <point x="54" y="0" type="line"/>
      <point x="54" y="461" type="line"/>
      <point x="112" y="461" type="line"/>
      <point x="152" y="152" type="line"/>
      <point x="116" y="0" type="line"/>
    </contour>
    <contour>
      <point x="91" y="1169" type="qcurve" smooth="yes"/>
      <point x="91" y="1319"/>
      <point x="297" y="1519"/>
      <point x="484" y="1519" type="qcurve" smooth="yes"/>
      <point x="618" y="1519"/>
      <point x="799" y="1433"/>
      <point x="854" y="1360" type="qcurve"/>
      <point x="830" y="1319" type="line"/>
      <point x="786" y="1378"/>
      <point x="616" y="1457"/>
      <point x="486" y="1457" type="qcurve" smooth="yes"/>
      <point x="300" y="1457"/>
      <point x="98" y="1301"/>
      <point x="98" y="1185" type="qcurve" smooth="yes"/>
      <point x="98" y="1068"/>
      <point x="240" y="934"/>
      <point x="524" y="813" type="qcurve" smooth="yes"/>
      <point x="832" y="682"/>
      <point x="1007" y="507"/>
      <point x="1007" y="372" type="qcurve" smooth="yes"/>
      <point x="1007" y="189"/>
      <point x="759" y="-22"/>
      <point x="572" y="-22" type="qcurve" smooth="yes"/>
      <point x="400" y="-22"/>
      <point x="181" y="83"/>
      <point x="111" y="168" type="qcurve"/>
      <point x="145" y="224" type="line"/>
      <point x="175" y="152"/>
      <point x="394" y="38"/>
      <point x="584" y="38" type="qcurve" smooth="yes"/>
      <point x="768" y="38"/>
      <point x="991" y="225"/>
      <point x="991" y="372" type="qcurve" smooth="yes"/>
      <point x="991" y="485"/>
      <point x="825" y="660"/>
      <point x="512" y="791" type="qcurve" smooth="yes"/>
      <point x="220" y="915"/>
      <point x="91" y="1060"/>
    </contour>
    <contour>
      <point x="818" y="1332" type="line"/>
      <point x="851" y="1487" type="line"/>
      <point x="908" y="1487" type="line"/>
      <point x="908" y="1084" type="line"/>
      <point x="851" y="1084" type="line"/>
    </contour>
  </outline>
</glyph>
<glyph name="T" format="1">
  <advance width="1229"/>
  <unicode hex="0054"/>
  <outline>
    <contour>
      <point x="37" y="1117" type="line"/>
      <point x="37" y="1500" type="line"/>
      <point x="1192" y="1500" type="line"/>
      <point x="1192" y="1117" type="line"/>
      <point x="1138" y="1117" type="line"/>
      <point x="1085" y="1443" type="line"/>
      <point x="678" y="1443" type="line"/>
      <point x="624" y="1431" type="line"/>
      <point x="624" y="754" type="line"/>
      <point x="624" y="74" type="line"/>
      <point x="905" y="50" type="line"/>
      <point x="905" y="0" type="line"/>
      <point x="316" y="0" type="line"/>
      <point x="316" y="50" type="line"/>
      <point x="605" y="74" type="line"/>
      <point x="605" y="754" type="line"/>
      <point x="605" y="1429" type="line"/>
      <point x="540" y="1443" type="line"/>
      <point x="136" y="1443" type="line"/>
      <point x="92" y="1117" type="line"/>
    </contour>
  </outline>
</glyph>
<glyph name="V" format="1">
  <advance width="1356"/>
  <unicode hex="0056"/>
  <outline>
    <contour>
      <point x="-47" y="1443" type="line"/>
      <point x="-47" y="1500" type="line"/>
      <point x="466" y="1500" type="line"/>
      <point x="466" y="1443" type="line"/>
      <point x="212" y="1426" type="line"/>
      <point x="426" y="762" type="line"/>
      <point x="664" y="7" type="line"/>
      <point x="940" y="794" type="line"/>
      <point x="1157" y="1428" type="line"/>
      <point x="938" y="1443" type="line"/>
      <point x="938" y="1500" type="line"/>
      <point x="1424" y="1500" type="line"/>
      <point x="1424" y="1443" type="line"/>
      <point x="1228" y="1427" type="line"/>
      <point x="999" y="770" type="line"/>
      <point x="728" y="-7" type="line"/>
      <point x="645" y="-7" type="line"/>
      <point x="408" y="756" type="line"/>
      <point x="190" y="1426" type="line"/>
    </contour>
  </outline>
</glyph>
<glyph name="Y" format="1">
  <advance width="1208"/>
  <unicode hex="0059"/>
  <outline>
    <contour>
      <point x="-70" y="1443" type="line"/>
      <point x="-70" y="1500" type="line"/>
      <point x="437" y="1500" type="line"/>
      <point x="437" y="1443" type="line"/>
      <point x="198" y="1433" type="line"/>
      <point x="402" y="1017" type="line"/>
      <point x="585" y="642" type="line"/>
      <point x="816" y="1071" type="line"/>
      <point x="1008" y="1431" type="line"/>
      <point x="793" y="1443" type="line"/>
      <point x="793" y="1500" type="line"/>
      <point x="1279" y="1500" type="line"/>
      <point x="1279" y="1443" type="line"/>
      <point x="1082" y="1431" type="line"/>
      <point x="865" y="1036" type="line"/>
      <point x="616" y="574" type="line"/>
      <point x="615" y="77" type="line"/>
      <point x="900" y="50" type="line"/>
      <point x="900" y="0" type="line"/>
      <point x="309" y="0" type="line"/>
      <point x="309" y="50" type="line"/>
      <point x="597" y="77" type="line"/>
      <point x="597" y="563" type="line"/>
      <point x="384" y="1006" type="line"/>
      <point x="176" y="1428" type="line"/>
    </contour>
  </outline>
</glyph>
<glyph name="asciicircum" format="1">
  <advance width="1251"/>
  <unicode hex="005E"/>
  <outline>
    <contour>
      <point x="607" y="1519" type="qcurve"/>
      <point x="607" y="1519"/>
      <point x="1073" y="1002"/>
      <point x="1129" y="938" type="qcurve"/>
      <point x="1137" y="931"/>
      <point x="1139" y="932"/>
      <point x="1132" y="942" type="qcurve"/>
      <point x="1026" y="1062"/>
      <point x="606" y="1536"/>
      <point x="606" y="1536" type="qcurve"/>
      <point x="606" y="1536"/>
      <point x="215" y="1068"/>
      <point x="119" y="941" type="qcurve"/>
      <point x="112" y="930"/>
      <point x="114" y="928"/>
      <point x="121" y="937" type="qcurve" smooth="yes"/>
      <point x="173" y="1005"/>
      <point x="607" y="1519"/>
    </contour>
  </outline>
</glyph>
<glyph name="d" format="1">
  <advance width="1154"/>
  <unicode hex="0064"/>
  <outline>
    <contour>
      <point x="117" y="487" type="qcurve" smooth="yes"/>
      <point x="117" y="729"/>
      <point x="354" y="1020"/>
      <point x="549" y="1020" type="qcurve" smooth="yes"/>
      <point x="672" y="1020"/>
      <point x="844" y="926"/>
      <point x="875" y="869" type="qcurve"/>
      <point x="875" y="809" type="line"/>
      <point x="833" y="875"/>
      <point x="655" y="968"/>
      <point x="535" y="968" type="qcurve" smooth="yes"/>
      <point x="349" y="968"/>
      <point x="136" y="720"/>
      <point x="136" y="502" type="qcurve" smooth="yes"/>
      <point x="136" y="284"/>
      <point x="344" y="53"/>
      <point x="523" y="53" type="qcurve" smooth="yes"/>
      <point x="649" y="53"/>
      <point x="825" y="151"/>
      <point x="877" y="231" type="qcurve"/>
      <point x="873" y="203" type="line"/>
      <point x="836" y="121"/>
      <point x="664" y="-12"/>
      <point x="527" y="-12" type="qcurve" smooth="yes"/>
      <point x="347" y="-12"/>
      <point x="117" y="255"/>
    </contour>
    <contour>
      <point x="623" y="1453" type="line"/>
      <point x="623" y="1500" type="line"/>
      <point x="895" y="1515" type="line"/>
      <point x="891" y="1507" type="line"/>
      <point x="887" y="1486" type="line"/>
      <point x="887" y="535" type="line"/>
      <point x="888" y="76" type="line"/>
      <point x="1107" y="43" type="line"/>
      <point x="1107" y="0" type="line"/>
      <point x="858" y="0" type="line"/>
      <point x="872" y="34" type="line"/>
      <point x="869" y="159" type="line"/>
      <point x="869" y="535" type="line"/>
      <point x="869" y="1427" type="line"/>
    </contour>
  </outline>
</glyph>
<glyph name="e" format="1">
  <advance width="963"/>
  <unicode hex="0065"/>
  <outline>
    <contour>
      <point x="111" y="518" type="qcurve" smooth="yes"/>
      <point x="111" y="733"/>
      <point x="338" y="1022"/>
      <point x="518" y="1022" type="qcurve" smooth="yes"/>
      <point x="678" y="1022"/>
      <point x="883" y="785"/>
      <point x="902" y="588" type="qcurve"/>
      <point x="883" y="588" type="line"/>
      <point x="871" y="750"/>
      <point x="674" y="965"/>
      <point x="506" y="965" type="qcurve" smooth="yes"/>
      <point x="336" y="965"/>
      <point x="129" y="729"/>
      <point x="130" y="521" type="qcurve" smooth="yes"/>
      <point x="131" y="288"/>
      <point x="380" y="48"/>
      <point x="567" y="48" type="qcurve" smooth="yes"/>
      <point x="670" y="48"/>
      <point x="818" y="120"/>
      <point x="863" y="174" type="qcurve"/>
      <point x="882" y="155" type="line"/>
      <point x="838" y="86"/>
      <point x="667" y="-22"/>
      <point x="553" y="-22" type="qcurve" smooth="yes"/>
      <point x="366" y="-22"/>
      <point x="111" y="262"/>
    </contour>
    <contour>
      <point x="121" y="556" type="line"/>
      <point x="126" y="605" type="line"/>
      <point x="891" y="605" type="line"/>
      <point x="901" y="590" type="line"/>
      <point x="900" y="556" type="line"/>
    </contour>
  </outline>
</glyph>
<glyph name="g" format="1">
  <advance width="1005"/>
  <unicode hex="0067"/>
  <outline>
    <contour>
      <point x="17" y="-263" type="qcurve" smooth="yes"/>
      <point x="17" y="-180"/>
      <point x="144" y="-41"/>
      <point x="291" y="5" type="qcurve"/>
      <point x="331" y="-4" type="line"/>
      <point x="181" y="-57"/>
      <point x="84" y="-180"/>
      <point x="84" y="-251" type="qcurve" smooth="yes"/>
      <point x="84" y="-338"/>
      <point x="293" y="-458"/>
      <point x="505" y="-458" type="qcurve" smooth="yes"/>
      <point x="715" y="-458"/>
      <point x="937" y="-345"/>
      <point x="937" y="-238" type="qcurve" smooth="yes"/>
      <point x="937" y="-132"/>
      <point x="761" y="-42"/>
      <point x="508" y="-27" type="qcurve" smooth="yes"/>
      <point x="258" y="-13"/>
      <point x="80" y="75"/>
      <point x="80" y="141" type="qcurve" smooth="yes"/>
      <point x="80" y="218"/>
      <point x="192" y="316"/>
      <point x="273" y="342" type="qcurve"/>
      <point x="300" y="308" type="line"/>
      <point x="246" y="286"/>
      <point x="157" y="219"/>
      <point x="157" y="162" type="qcurve" smooth="yes"/>
      <point x="157" y="86"/>
      <point x="311" y="2"/>
      <point x="538" y="-10" type="qcurve" smooth="yes"/>
      <point x="780" y="-24"/>
      <point x="1010" y="-103"/>
      <point x="1010" y="-217" type="qcurve" smooth="yes"/>
      <point x="1010" y="-336"/>
      <point x="771" y="-510"/>
      <point x="494" y="-510" type="qcurve" smooth="yes"/>
      <point x="260" y="-510"/>
      <point x="17" y="-372"/>
    </contour>
    <contour>
      <point x="131" y="641" type="qcurve" smooth="yes"/>
      <point x="131" y="808"/>
      <point x="332" y="1022"/>
      <point x="496" y="1022" type="qcurve" smooth="yes"/>
      <point x="662" y="1022"/>
      <point x="865" y="822"/>
      <point x="865" y="645" type="qcurve" smooth="yes"/>
      <point x="866" y="478"/>
      <point x="665" y="240"/>
      <point x="501" y="240" type="qcurve" smooth="yes"/>
      <point x="335" y="240"/>
      <point x="131" y="460"/>
    </contour>
    <contour>
      <point x="150" y="650" type="qcurve" smooth="yes"/>
      <point x="150" y="479"/>
      <point x="341" y="292"/>
      <point x="498" y="292" type="qcurve" smooth="yes"/>
      <point x="665" y="292"/>
      <point x="847" y="478"/>
      <point x="847" y="645" type="qcurve" smooth="yes"/>
      <point x="847" y="799"/>
      <point x="658" y="966"/>
      <point x="501" y="966" type="qcurve" smooth="yes"/>
      <point x="334" y="966"/>
      <point x="150" y="802"/>
    </contour>
    <contour>
      <point x="640" y="943" type="line"/>
      <point x="626" y="990" type="line"/>
      <point x="1014" y="991" type="line"/>
      <point x="1014" y="929" type="line"/>
    </contour>
  </outline>
</glyph>
<glyph name="i" format="1">
  <advance width="611"/>
  <unicode hex="0069"/>
  <outline>
    <contour>
      <point x="72" y="0" type="line"/>
      <point x="72" y="43" type="line"/>
      <point x="300" y="75" type="line"/>
      <point x="300" y="527" type="line"/>
      <point x="299" y="925" type="line"/>
      <point x="67" y="939" type="line"/>
      <point x="67" y="986" type="line"/>
      <point x="314" y="1003" type="line"/>
      <point x="316" y="1001" type="line"/>
      <point x="318" y="967" type="line"/>
      <point x="318" y="527" type="line"/>
      <point x="319" y="75" type="line"/>
      <point x="549" y="43" type="line"/>
      <point x="549" y="0" type="line"/>
    </contour>
    <contour>
      <point x="277" y="1312" type="qcurve" smooth="yes"/>
      <point x="277" y="1330"/>
      <point x="295" y="1350"/>
      <point x="310" y="1350" type="qcurve" smooth="yes"/>
      <point x="325" y="1350"/>
      <point x="345" y="1329"/>
      <point x="345" y="1312" type="qcurve" smooth="yes"/>
      <point x="345" y="1295"/>
      <point x="325" y="1275"/>
      <point x="310" y="1275" type="qcurve" smooth="yes"/>
      <point x="296" y="1275"/>
      <point x="277" y="1296"/>
    </contour>
  </outline>
</glyph>
<glyph name="l" format="1">
  <advance width="604"/>
  <unicode hex="006C"/>
  <outline>
    <contour>
      <point x="71" y="0" type="line"/>
      <point x="71" y="43" type="line"/>
      <point x="299" y="75" type="line"/>
      <point x="299" y="527" type="line"/>
      <point x="299" y="1432" type="line"/>
      <point x="48" y="1454" type="line"/>
      <point x="48" y="1500" type="line"/>
      <point x="319" y="1515" type="line"/>
      <point x="315" y="1514" type="line"/>
      <point x="318" y="1489" type="line"/>
      <point x="318" y="527" type="line"/>
      <point x="318" y="75" type="line"/>
      <point x="543" y="43" type="line"/>
      <point x="543" y="0" type="line"/>
    </contour>
  </outline>
</glyph>
<glyph name="n" format="1">
  <advance width="1208"/>
  <unicode hex="006E"/>
  <outline>
    <contour>
      <point x="71" y="0" type="line"/>
      <point x="71" y="43" type="line"/>
      <point x="288" y="75" type="line"/>
      <point x="286" y="566" type="line"/>
      <point x="287" y="915" type="line"/>
      <point x="71" y="940" type="line"/>
      <point x="71" y="986" type="line"/>
      <point x="306" y="1000" type="line"/>
      <point x="310" y="1000" type="line"/>
      <point x="305" y="879" type="line"/>
      <point x="305" y="566" type="line"/>
      <point x="304" y="75" type="line"/>
      <point x="511" y="43" type="line"/>
      <point x="511" y="0" type="line"/>
    </contour>
    <contour>
      <point x="301" y="683" type="qcurve"/>
      <point x="301" y="721" type="line"/>
      <point x="331" y="838"/>
      <point x="519" y="1022"/>
      <point x="664" y="1022" type="qcurve" smooth="yes"/>
      <point x="800" y="1022"/>
      <point x="931" y="883"/>
      <point x="931" y="759" type="qcurve" smooth="yes"/>
      <point x="931" y="687"/>
      <point x="933" y="527"/>
      <point x="933" y="527" type="qcurve"/>
      <point x="930" y="75" type="line"/>
      <point x="1147" y="43" type="line"/>
      <point x="1147" y="0" type="line"/>
      <point x="688" y="0" type="line"/>
      <point x="688" y="43" type="line"/>
      <point x="913" y="75" type="line"/>
      <point x="912" y="567" type="line"/>
      <point x="912" y="732" type="line" smooth="yes"/>
      <point x="912" y="833"/>
      <point x="795" y="942"/>
      <point x="673" y="942" type="qcurve" smooth="yes"/>
      <point x="546" y="942"/>
      <point x="358" y="814"/>
    </contour>
  </outline>
</glyph>
<glyph name="o" format="1">
  <advance width="1115"/>
  <unicode hex="006F"/>
  <outline>
    <contour>
      <point x="111" y="501" type="qcurve" smooth="yes"/>
      <point x="111" y="725"/>
      <point x="361" y="1022"/>
      <point x="556" y="1022" type="qcurve" smooth="yes"/>
      <point x="752" y="1022"/>
      <point x="1005" y="738"/>
      <point x="1005" y="504" type="qcurve" smooth="yes"/>
      <point x="1005" y="279"/>
      <point x="755" y="-22"/>
      <point x="559" y="-22" type="qcurve" smooth="yes"/>
      <point x="362" y="-22"/>
      <point x="111" y="265"/>
    </contour>
    <contour>
      <point x="130" y="501" type="qcurve" smooth="yes"/>
      <point x="131" y="296"/>
      <point x="368" y="34"/>
      <point x="554" y="34" type="qcurve" smooth="yes"/>
      <point x="753" y="34"/>
      <point x="985" y="281"/>
      <point x="985" y="505" type="qcurve" smooth="yes"/>
      <point x="985" y="716"/>
      <point x="745" y="963"/>
      <point x="556" y="963" type="qcurve" smooth="yes"/>
      <point x="359" y="963"/>
      <point x="129" y="728"/>
    </contour>
  </outline>
</glyph>
<glyph name="p" format="1">
  <advance width="1145"/>
  <unicode hex="0070"/>
  <outline>
    <contour>
      <point x="57" y="-475" type="line"/>
      <point x="57" y="-431" type="line"/>
      <point x="268" y="-399" type="line"/>
      <point x="268" y="427" type="line"/>
      <point x="268" y="925" type="line"/>
      <point x="52" y="940" type="line"/>
      <point x="52" y="986" type="line"/>
      <point x="295" y="1000" type="line"/>
      <point x="294" y="985" type="line"/>
      <point x="287" y="853" type="line"/>
      <point x="287" y="427" type="line"/>
      <point x="287" y="-399" type="line"/>
      <point x="507" y="-431" type="line"/>
      <point x="507" y="-475" type="line"/>
    </contour>
    <contour>
      <point x="286" y="139" type="qcurve"/>
      <point x="280" y="193" type="line"/>
      <point x="320" y="128"/>
      <point x="513" y="40"/>
      <point x="644" y="40" type="qcurve" smooth="yes"/>
      <point x="817" y="40"/>
      <point x="1016" y="283"/>
      <point x="1016" y="512" type="qcurve" smooth="yes"/>
      <point x="1016" y="724"/>
      <point x="817" y="954"/>
      <point x="652" y="954" type="qcurve" smooth="yes"/>
      <point x="513" y="954"/>
      <point x="326" y="839"/>
      <point x="279" y="772" type="qcurve"/>
      <point x="283" y="804" type="line"/>
      <point x="316" y="876"/>
      <point x="492" y="1020"/>
      <point x="647" y="1020" type="qcurve" smooth="yes"/>
      <point x="814" y="1020"/>
      <point x="1035" y="758"/>
      <point x="1035" y="528" type="qcurve" smooth="yes"/>
      <point x="1035" y="276"/>
      <point x="810" y="-12"/>
      <point x="617" y="-12" type="qcurve" smooth="yes"/>
      <point x="491" y="-12"/>
      <point x="317" y="84"/>
    </contour>
  </outline>
</glyph>
<glyph name="q" format="1">
  <advance width="1136"/>
  <unicode hex="0071"/>
  <outline>
    <contour>
      <point x="112" y="487" type="qcurve" smooth="yes"/>
      <point x="112" y="729"/>
      <point x="348" y="1020"/>
      <point x="544" y="1020" type="qcurve" smooth="yes"/>
      <point x="672" y="1020"/>
      <point x="837" y="923"/>
      <point x="866" y="870" type="qcurve"/>
      <point x="867" y="812" type="line"/>
      <point x="825" y="877"/>
      <point x="646" y="969"/>
      <point x="532" y="969" type="qcurve" smooth="yes"/>
      <point x="344" y="969"/>
      <point x="131" y="719"/>
      <point x="131" y="500" type="qcurve" smooth="yes"/>
      <point x="131" y="281"/>
      <point x="339" y="50"/>
      <point x="518" y="50" type="qcurve" smooth="yes"/>
      <point x="644" y="50"/>
      <point x="819" y="154"/>
      <point x="865" y="228" type="qcurve"/>
      <point x="869" y="204" type="line"/>
      <point x="835" y="127"/>
      <point x="661" y="-12"/>
      <point x="528" y="-12" type="qcurve" smooth="yes"/>
      <point x="347" y="-12"/>
      <point x="112" y="255"/>
    </contour>
    <contour>
      <point x="624" y="-475" type="line"/>
      <point x="624" y="-431" type="line"/>
      <point x="860" y="-400" type="line"/>
      <point x="860" y="233" type="line"/>
      <point x="861" y="921" type="line"/>
      <point x="860" y="1004" type="line"/>
      <point x="1098" y="989" type="line"/>
      <point x="1098" y="943" type="line"/>
      <point x="879" y="917" type="line"/>
      <point x="879" y="432" type="line"/>
      <point x="879" y="-400" type="line"/>
      <point x="1096" y="-431" type="line"/>
      <point x="1096" y="-475" type="line"/>
    </contour>
  </outline>
</glyph>
<glyph name="v" format="1">
  <advance width="1004"/>
  <unicode hex="0076"/>
  <outline>
    <contour>
      <point x="-37" y="955" type="line"/>
      <point x="-37" y="1000" type="line"/>
      <point x="374" y="1000" type="line"/>
      <point x="374" y="955" type="line"/>
      <point x="184" y="922" type="line"/>
      <point x="312" y="507" type="line"/>
      <point x="472" y="-4" type="line"/>
      <point x="666" y="525" type="line"/>
      <point x="816" y="936" type="line"/>
      <point x="641" y="955" type="line"/>
      <point x="641" y="1000" type="line"/>
      <point x="1042" y="1000" type="line"/>
      <point x="1042" y="955" type="line"/>
      <point x="880" y="935" type="line"/>
      <point x="719" y="506" type="line"/>
      <point x="534" y="-7" type="line"/>
      <point x="453" y="-7" type="line"/>
      <point x="295" y="502" type="line"/>
      <point x="164" y="921" type="line"/>
    </contour>
  </outline>
</glyph>
<glyph name="braceleft" format="1">
  <advance width="669"/>
  <unicode hex="007B"/>
  <outline>
    <contour>
      <point x="57" y="508" type="line"/>
      <point x="57" y="562" type="line"/>
      <point x="180" y="572" type="line" smooth="yes"/>
      <point x="251" y="578"/>
      <point x="373" y="647"/>
      <point x="373" y="740" type="qcurve" smooth="yes"/>
      <point x="373" y="831"/>
      <point x="245" y="1070"/>
      <point x="245" y="1200" type="qcurve" smooth="yes"/>
      <point x="245" y="1336"/>
      <point x="366" y="1510"/>
      <point x="505" y="1510" type="qcurve" smooth="yes"/>
      <point x="557" y="1510"/>
      <point x="625" y="1503"/>
      <point x="659" y="1500" type="qcurve"/>
      <point x="659" y="1443" type="line"/>
      <point x="620" y="1445"/>
      <point x="560" y="1447"/>
      <point x="511" y="1447" type="qcurve" smooth="yes"/>
      <point x="398" y="1447"/>
      <point x="263" y="1320"/>
      <point x="263" y="1202" type="qcurve" smooth="yes"/>
      <point x="263" y="1068"/>
      <point x="379" y="832"/>
      <point x="379" y="741" type="qcurve" smooth="yes"/>
      <point x="379" y="649"/>
      <point x="286" y="564"/>
      <point x="225" y="548" type="qcurve"/>
      <point x="329" y="527"/>
      <point x="379" y="443"/>
      <point x="379" y="342" type="qcurve" smooth="yes"/>
      <point x="379" y="221"/>
      <point x="249" y="-53"/>
      <point x="249" y="-173" type="qcurve" smooth="yes"/>
      <point x="249" y="-310"/>
      <point x="396" y="-432"/>
      <point x="498" y="-432" type="qcurve" smooth="yes"/>
      <point x="550" y="-432"/>
      <point x="607" y="-431"/>
      <point x="654" y="-427" type="qcurve"/>
      <point x="654" y="-484" type="line"/>
      <point x="618" y="-488"/>
      <point x="547" y="-495"/>
      <point x="495" y="-495" type="qcurve" smooth="yes"/>
      <point x="355" y="-495"/>
      <point x="231" y="-330"/>
      <point x="231" y="-171" type="qcurve" smooth="yes"/>
      <point x="231" y="-50"/>
      <point x="371" y="246"/>
      <point x="371" y="373" type="qcurve"/>
      <point x="327" y="508" type="line"/>
    </contour>
  </outline>
</glyph>
<glyph name="braceright" format="1">
  <advance width="669"/>
  <unicode hex="007D"/>
  <outline>
    <contour>
      <point x="612" y="508" type="line"/>
      <point x="342" y="508" type="line"/>
      <point x="298" y="373" type="line"/>
      <point x="298" y="246"/>
      <point x="438" y="-50"/>
      <point x="438" y="-171" type="qcurve" smooth="yes"/>
      <point x="438" y="-330"/>
      <point x="314" y="-495"/>
      <point x="174" y="-495" type="qcurve" smooth="yes"/>
      <point x="122" y="-495"/>
      <point x="51" y="-488"/>
      <point x="15" y="-484" type="qcurve"/>
      <point x="15" y="-427" type="line"/>
      <point x="62" y="-431"/>
      <point x="119" y="-432"/>
      <point x="171" y="-432" type="qcurve" smooth="yes"/>
      <point x="273" y="-432"/>
      <point x="420" y="-310"/>
      <point x="420" y="-173" type="qcurve" smooth="yes"/>
      <point x="420" y="-53"/>
      <point x="290" y="221"/>
      <point x="290" y="342" type="qcurve" smooth="yes"/>
      <point x="290" y="443"/>
      <point x="340" y="527"/>
      <point x="445" y="548" type="qcurve"/>
      <point x="383" y="564"/>
      <point x="290" y="649"/>
      <point x="290" y="741" type="qcurve" smooth="yes"/>
      <point x="290" y="832"/>
      <point x="406" y="1068"/>
      <point x="406" y="1202" type="qcurve" smooth="yes"/>
      <point x="406" y="1320"/>
      <point x="271" y="1447"/>
      <point x="158" y="1447" type="qcurve" smooth="yes"/>
      <point x="109" y="1447"/>
      <point x="49" y="1445"/>
      <point x="10" y="1443" type="qcurve"/>
      <point x="10" y="1500" type="line"/>
      <point x="44" y="1503"/>
      <point x="112" y="1510"/>
      <point x="165" y="1510" type="qcurve" smooth="yes"/>
      <point x="303" y="1510"/>
      <point x="424" y="1336"/>
      <point x="424" y="1200" type="qcurve" smooth="yes"/>
      <point x="424" y="1070"/>
      <point x="296" y="831"/>
      <point x="296" y="740" type="qcurve" smooth="yes"/>
      <point x="296" y="647"/>
      <point x="418" y="578"/>
      <point x="489" y="572" type="qcurve" smooth="yes"/>
      <point x="612" y="562" type="line"/>
    </contour>
  </outline>
</glyph>
<glyph name="asciitilde" format="1">
  <advance width="986"/>
  <unicode hex="007E"/>
  <outline>
    <contour>
      <point x="51" y="570" type="line"/>
      <point x="110" y="642"/>
      <point x="251" y="725"/>
      <point x="336" y="726" type="qcurve"/>
      <point x="673" y="601" type="line"/>
      <point x="733" y="601"/>
      <point x="838" y="728"/>
      <point x="879" y="812" type="qcurve"/>
      <point x="924" y="785" type="line"/>
      <point x="877" y="686"/>
      <point x="758" y="587"/>
      <point x="669" y="586" type="qcurve"/>
      <point x="334" y="710" type="line"/>
      <point x="273" y="710"/>
      <point x="144" y="605"/>
      <point x="86" y="536" type="qcurve"/>
    </contour>
  </outline>
</glyph>
